<?xml version="1.0" encoding="utf-8"?>
<!-- Generator: Adobe Illustrator 18.1.1, SVG Export Plug-In . SVG Version: 6.00 Build 0)  -->
<svg class="animated-devu-monster" version="1.1" id="Layer_1" xmlns="http://www.w3.org/2000/svg" xmlns:xlink="http://www.w3.org/1999/xlink" x="0px" y="0px"
	 viewBox="0 0 170.1 170.1" enable-background="new 0 0 170.1 170.1" xml:space="preserve">
<g>
	<g id="XMLID_1_">
		<g>
			<path fill="#BD98C7" d="M156.3,54.9c0,0,17.5,31.8-7.2,53.3c0,0-15.8,12.5-36.9,13.1c0.9-8.7,1.2-18.4,1.3-26.9
				c4.9,0.7,22.6,1.7,23.7-18.6C137,56.2,114,57.6,114,57.6s-2.8,0.2-3.1-2c-0.3-2.1,2.7-2.2,2.7-2.2l4.6-0.2c0,0,2-0.4,2-2.1
				c0-1.7-2.2-2.5-2.2-2.5l-4.7-0.4c0,0-2-0.2-2-2.1c0-1.9,2.2-2,2.2-2l5.4,0.2c0,0,1.9-0.1,1.9-2.2c0-2.1-2.3-2.5-2.3-2.5l-4.4-0.5
				c0,0-1.8-0.3-1.6-1.8c0.2-1.5,1.8-1.6,1.8-1.6h5c0,0,1.6-0.4,1.5-1.8c-0.1-1.4-1.4-1.8-1.4-1.8l-4.5-0.2c0,0-2.2,0-2.3-1.7
				c-0.1-1.7,1.5-2.1,1.5-2.1S135.1,24.6,156.3,54.9z"/>
			<path fill="#5D85B7" d="M122.6,73.5c5,2.2-0.4,5.4-0.4,5.4l-5.2,1.5c0.1-0.9,0.1-1.6,0.1-1.6l0.1-5.1c0,0,0-0.7-0.3-1.6
				L122.6,73.5z"/>
			<path fill="#A1D5B4" d="M117.3,73.7l-0.1,5.1c0,0,0,0.7-0.1,1.6c-0.2,1.3-0.8,2.9-2.2,3c-0.5,0-0.9-0.1-1.3-0.2
				c-0.1-7.4-0.3-12.4-0.3-12.4c0-0.1-0.1-0.2-0.1-0.2c0.5-0.4,1.1-0.7,1.7-0.7c1.3,0,1.9,1.2,2.2,2.3
				C117.2,72.9,117.3,73.7,117.3,73.7z"/>
			<path fill="#BD98C7" d="M113.5,83.2c0,3.3,0.1,7.1,0,11.2c-0.1,8.5-0.4,18.2-1.3,26.9c-0.3,3.1-0.7,6-1.2,8.8
				c0,0-0.3,6.1-6.4,10.3c-3,2.1-7.4,3.8-13.8,4c-1.4,0.1-2.9,0-4.4-0.1c-1.5-0.1-3-0.2-4.4-0.4c-5.7-0.8-9.8-2.4-12.8-4.2
				c-6.7-4.1-7.8-9.3-7.8-9.3s-0.4-3.2-0.7-9.3c-0.3-5.8-0.6-14.2-0.3-24.9c0.1-4.2,0.3-8.7,0.6-13.6c0.2-3.8,0.5-7.8,0.9-12
				c0,0,0-0.1,0-0.2c0.4-1.6,3.9-13.8,24.3-13.4c0,0,21.7-0.8,26.8,13.5c0,0.1,0.1,0.2,0.1,0.2C113.2,70.7,113.4,75.7,113.5,83.2z
				 M103.3,98.3c0-6.8-1.9-12.9-5-17.2c-1.4-1.9-3-3.5-4.7-4.7c-1.4-0.9-2.9-1.5-4.4-1.8c-0.7-0.1-1.5-0.2-2.2-0.2
				c-1.2,0-2.4,0.2-3.6,0.6c-1.3,0.4-2.6,1.1-3.8,2c-1.5,1.1-2.8,2.5-4,4.1c0,0,0,0,0,0c-3.1,4.4-5,10.5-5,17.3c0,6.8,2,13,5.1,17.4
				c1.5,2.1,3.3,3.7,5.2,4.9c1.9,1.1,3.9,1.7,6,1.7h0.2c1.7,0,3.3-0.4,4.8-1.2c2.1-1,4-2.6,5.6-4.6
				C101.1,112.1,103.3,105.6,103.3,98.3z"/>
			<path fill="#BD98C7" d="M105.1,148.2c0,0,0.4,3.5-6.6,4c-7.8,0.5-7.5-2.8-7.5-2.8l-0.1-5c6.4-0.2,10.8-1.9,13.8-4L105.1,148.2z"
				/>
			<path fill="#812F46" d="M98.3,81c3.1,4.4,5,10.5,5,17.2c0,7.3-2.2,13.8-5.7,18.2c-1.8,0.6-3.6,1-5.4,1.2
				c-1.1,0.1-2.1,0.2-3.1,0.2l3.5-8.1c0,0,5-10.6,0.5-15.1c-4.4-4.5-7.9-0.5-7.9-0.5c-2.4-1.1-4.9,0.2-4.9,0.2
				c-5.2,2.3-4.7,9.9-4.7,9.9s-0.3,3.8,3.2,5.4c3.5,1.6,6.4-0.9,6.4-0.9c0.7,2.1,0.6,7.1,0.5,9c-1.7-0.1-3.4-0.4-4.8-0.7
				c-2-0.4-3.7-1-5-1.5c-3.1-4.4-5.1-10.5-5.1-17.4c0-6.8,1.9-12.9,5-17.3c0,0,0,0,0,0c1.2-0.5,2.7-1.1,4.4-1.5
				c1.1-0.3,2.3-0.6,3.5-0.7h0c1.7-0.3,3.6-0.4,5.6-0.3c1.4,0.1,2.8,0.3,4.3,0.7C95.1,79.5,96.7,80.2,98.3,81z"/>
			<path fill="#FFFFFF" d="M97.6,116.5c-1.6,2-3.5,3.6-5.6,4.6l0.2-3.4C94,117.5,95.8,117.1,97.6,116.5z"/>
			<path fill="#FFFFFF" d="M93.6,76.4c1.8,1.1,3.4,2.7,4.7,4.7c-1.6-0.9-3.3-1.5-4.9-1.9L93.6,76.4z"/>
			<path fill="#FFFFFF" d="M93.6,76.4l-0.2,2.8c-1.4-0.4-2.9-0.6-4.3-0.7l0-3.9C90.8,74.9,92.2,75.5,93.6,76.4z"/>
			<path fill="#F6A4BC" d="M93.1,94.8c4.4,4.5-0.5,15.1-0.5,15.1l-3.5,8.1h0c-0.6,0-1.2,0-1.8,0c-0.6,0-1.1,0-1.7-0.1
				c0.1-1.9,0.2-7-0.5-9c0,0-2.9,2.5-6.4,0.9c-3.5-1.6-3.2-5.4-3.2-5.4s-0.5-7.6,4.7-9.9c0,0,2.5-1.3,4.9-0.2
				C85.2,94.2,88.7,90.2,93.1,94.8z"/>
			<path fill="#FFFFFF" d="M92.2,117.7l-0.2,3.4c-1.5,0.7-3.2,1.1-4.8,1.2l0.1-4.3c0.6,0,1.2,0,1.8,0h0
				C90.1,117.9,91.2,117.9,92.2,117.7z"/>
			<path fill="#FFFFFF" d="M89.2,74.5l0,3.9c-2-0.1-3.8,0-5.6,0.3h0l-0.1-3.8c1.2-0.4,2.3-0.6,3.6-0.6
				C87.8,74.3,88.5,74.4,89.2,74.5z"/>
			<path fill="#FFFFFF" d="M87.3,118l-0.1,4.3H87c-2.1,0-4.2-0.6-6-1.7l-0.2-3.4c1.5,0.3,3.1,0.6,4.8,0.7
				C86.2,117.9,86.7,117.9,87.3,118z"/>
			<path fill="#FFFFFF" d="M83.4,74.9l0.1,3.8c-1.3,0.2-2.4,0.5-3.5,0.7l-0.4-2.6C80.8,76,82.1,75.3,83.4,74.9z"/>
			<path fill="#BD98C7" d="M82.6,148.2c0,0,0.2,3.4-5.8,4.2c-7,0.8-6.9-3.1-6.9-3.1l-0.5-9.5c3,1.8,7.1,3.4,12.8,4.2L82.6,148.2z"/>
			<path fill="#FFFFFF" d="M80.8,117.1l0.2,3.4c-1.9-1.1-3.7-2.8-5.2-4.9C77.1,116.1,78.8,116.7,80.8,117.1z"/>
			<path fill="#FFFFFF" d="M79.6,76.9l0.4,2.6c-1.7,0.5-3.2,1-4.4,1.5C76.9,79.4,78.2,78,79.6,76.9z"/>
			<path fill="#A1D5B4" d="M62,70.4c0,0.1,0,0.2,0,0.2c-0.4,4.2-0.6,8.2-0.9,12c-0.4,0.4-0.9,0.6-1.6,0.6c-1-0.1-1.5-0.8-1.8-1.6
				c-0.4-1.2-0.4-2.5-0.4-2.5l0.4-5.2c0,0,0.1-1.5,0.6-2.8c0.4-1,1-1.8,2.1-1.7C61.1,69.3,61.6,69.8,62,70.4z"/>
			<path fill="#BD98C7" d="M60.6,96.1c-0.3,10.7,0,19.1,0.3,24.9c-14.8,1-30.4-9.7-30.4-9.7S5.9,98,7.8,63
				c1.9-35.1,14.9-44.5,14.9-44.5s1.6-1.6,3.7-0.2c2.1,1.4,1.2,3.2,1.2,3.2l-6,8.3c0,0-0.8,1.6,0.7,2.8c1.5,1.1,2.8-0.8,2.8-0.8
				l5.1-6.3c0,0,1.2-2.1,3.6-0.5c2.5,1.7,0.6,3.8,0.6,3.8l-6,7.4c0,0-0.8,1.4,0.6,2.7c1.4,1.2,2.7,0.1,2.7,0.1l5.2-6.1
				c0,0,1.8-2.1,4-0.4c2.2,1.7,0.3,4,0.3,4l-5.5,7.1c0,0-1.1,1.8,0.2,3s2.7-0.1,2.7-0.1l4.8-5c0,0,2-1.6,3.5-0.2
				c1.6,1.4,0.4,2.9,0.4,2.9l-4.9,5.3c-1.3,1.3-3.7,4.8-3.7,4.8s-9.9,15.3-3.1,30.5C42.3,99.5,60,96.2,60.6,96.1z"/>
			<path fill="#5D85B7" d="M51.7,73.5l6.5-2.5c-0.5,1.3-0.6,2.8-0.6,2.8l-0.4,5.2c0,0,0,1.3,0.4,2.5l-6.4-2.5
				C46.3,75.8,51.7,73.5,51.7,73.5z"/>
		</g>
		<g>
			<path fill="none" stroke="#010101" stroke-miterlimit="10" d="M113.6,94.3c0-4.1,0-7.9,0-11.2"/>
			<path fill="none" stroke="#010101" stroke-miterlimit="10" d="M104.7,140.4c6-4.2,6.4-10.3,6.4-10.3c0.5-2.7,0.8-5.7,1.2-8.8"/>
			<path fill="none" stroke="#010101" stroke-miterlimit="10" d="M82.2,143.9c1.4,0.2,2.8,0.3,4.4,0.4c1.6,0.1,3,0.1,4.4,0.1"/>
			<path fill="none" stroke="#010101" stroke-miterlimit="10" d="M60.9,121c0.3,6.1,0.7,9.3,0.7,9.3s1.1,5.2,7.8,9.3"/>
			<path fill="none" stroke="#010101" stroke-miterlimit="10" d="M61.1,82.6c-0.3,4.9-0.5,9.4-0.6,13.6"/>
			<path fill="none" stroke="#010101" stroke-miterlimit="10" d="M113.1,70.5c-5-14.3-26.8-13.5-26.8-13.5
				c-20.4-0.4-24,11.8-24.3,13.4"/>
			<path fill="none" stroke="#010101" stroke-miterlimit="10" d="M60.9,121c-14.8,1-30.4-9.7-30.4-9.7S5.9,98,7.8,63
				c1.9-35.1,14.9-44.5,14.9-44.5s1.6-1.6,3.7-0.2c2.1,1.4,1.2,3.2,1.2,3.2l-6,8.3c0,0-0.8,1.6,0.7,2.8c1.5,1.1,2.8-0.8,2.8-0.8
				l5.1-6.3c0,0,1.2-2.1,3.6-0.5c2.5,1.7,0.6,3.8,0.6,3.8l-6,7.4c0,0-0.8,1.4,0.6,2.7c1.4,1.2,2.7,0.1,2.7,0.1l5.2-6.1
				c0,0,1.8-2.1,4-0.4c2.2,1.7,0.3,4,0.3,4l-5.5,7.1c0,0-1.1,1.8,0.2,3s2.7-0.1,2.7-0.1l4.8-5c0,0,2-1.6,3.5-0.2
				c1.6,1.4,0.4,2.9,0.4,2.9l-4.9,5.3c-1.3,1.3-3.7,4.8-3.7,4.8s-9.9,15.3-3.1,30.5c6.7,14.9,24.5,11.6,25,11.5
				C60.3,106.8,60.5,115.2,60.9,121z"/>
			<path fill="none" stroke="#010101" stroke-miterlimit="10" d="M82.2,143.9l0.4,4.3c0,0,0.2,3.4-5.8,4.2c-7,0.8-6.9-3.1-6.9-3.1
				l-0.5-9.5C72.4,141.5,76.5,143.1,82.2,143.9z"/>
			<path fill="none" stroke="#010101" stroke-miterlimit="10" d="M104.7,140.4l0.4,7.8c0,0,0.4,3.5-6.6,4c-7.8,0.5-7.5-2.8-7.5-2.8
				l-0.1-5C97.4,144.1,101.7,142.5,104.7,140.4z"/>
			<path fill="none" stroke="#010101" stroke-miterlimit="10" d="M113.6,94.3c4.9,0.7,22.6,1.7,23.7-18.6
				C137,56.2,114,57.6,114,57.6s-2.8,0.2-3.1-2c-0.3-2.1,2.7-2.2,2.7-2.2l4.6-0.2c0,0,2-0.4,2-2.1c0-1.7-2.2-2.5-2.2-2.5l-4.7-0.4
				c0,0-2-0.2-2-2.1c0-1.9,2.2-2,2.2-2l5.4,0.2c0,0,1.9-0.1,1.9-2.2c0-2.1-2.3-2.5-2.3-2.5l-4.4-0.5c0,0-1.8-0.3-1.6-1.8
				c0.2-1.5,1.8-1.6,1.8-1.6h5c0,0,1.6-0.4,1.5-1.8c-0.1-1.4-1.4-1.8-1.4-1.8l-4.5-0.2c0,0-2.2,0-2.3-1.7c-0.1-1.7,1.5-2.1,1.5-2.1
				s21.1-3.4,42.3,26.9c0,0,17.5,31.8-7.2,53.3c0,0-15.8,12.5-36.9,13.1C113.1,112.5,113.5,102.9,113.6,94.3z"/>
			<path fill="none" stroke="#010101" stroke-miterlimit="10" d="M58.2,71c0.4-1,1-1.8,2.1-1.7c0.8,0,1.3,0.5,1.7,1.1
				c0,0.1,0,0.2,0,0.2c-0.4,4.2-0.6,8.2-0.9,12c-0.4,0.4-0.9,0.6-1.6,0.6c-1-0.1-1.5-0.8-1.8-1.6"/>
			<path fill="none" stroke="#010101" stroke-miterlimit="10" d="M57.7,81.6l-6.4-2.5c-4.9-3.3,0.4-5.6,0.4-5.6l6.5-2.5
				c-0.5,1.3-0.6,2.8-0.6,2.8l-0.4,5.2C57.2,79.1,57.2,80.4,57.7,81.6z"/>
			<path fill="none" stroke="#010101" stroke-miterlimit="10" d="M117,80.4c-0.2,1.3-0.8,2.9-2.2,3c-0.5,0-0.9-0.1-1.3-0.2
				c-0.1-7.4-0.3-12.4-0.3-12.4c0-0.1-0.1-0.2-0.1-0.2c0.5-0.4,1.1-0.7,1.7-0.7c1.3,0,1.9,1.2,2.2,2.3"/>
			<path fill="none" stroke="#010101" stroke-miterlimit="10" d="M117,72.1l5.6,1.4c5,2.2-0.4,5.4-0.4,5.4l-5.2,1.5
				c0.1-0.9,0.1-1.6,0.1-1.6l0.1-5.1C117.3,73.7,117.2,72.9,117,72.1z"/>
			<path fill="none" stroke="#010101" stroke-miterlimit="10" d="M73,70.3c0,0,5.4-5.6,12.7-1.5"/>
			<path fill="none" stroke="#010101" stroke-miterlimit="10" d="M88.8,69.3c0,0,5.3-5.9,13.1,0.3"/>
			<path fill="none" stroke="#010101" stroke-miterlimit="10" d="M75.8,115.7c-3.1-4.4-5.1-10.5-5.1-17.4c0-6.8,1.9-12.9,5-17.3
				c0,0,0,0,0,0"/>
			<path fill="none" stroke="#010101" stroke-miterlimit="10" d="M98.3,81c3.1,4.4,5,10.5,5,17.2c0,7.3-2.2,13.8-5.7,18.2"/>
			<path fill="none" stroke="#000000" stroke-miterlimit="10" d="M80.1,79.5c-1.7,0.5-3.2,1-4.4,1.5c1.2-1.6,2.5-3,4-4.1"/>
			<path fill="none" stroke="#000000" stroke-miterlimit="10" d="M83.6,78.7c-1.3,0.2-2.4,0.5-3.5,0.7l-0.4-2.6
				c1.2-0.9,2.5-1.6,3.8-2"/>
			<path fill="none" stroke="#000000" stroke-miterlimit="10" d="M89.2,78.5c-2-0.1-3.8,0-5.6,0.3h0l-0.1-3.8
				c1.2-0.4,2.3-0.6,3.6-0.6c0.8,0,1.5,0.1,2.2,0.2"/>
			<path fill="none" stroke="#000000" stroke-miterlimit="10" d="M93.4,79.1c-1.4-0.4-2.9-0.6-4.3-0.7l0-3.9c1.5,0.3,3,0.9,4.4,1.8"
				/>
			<path fill="none" stroke="#000000" stroke-miterlimit="10" d="M98.3,81c-1.6-0.9-3.3-1.5-4.9-1.9l0.2-2.8
				C95.4,77.5,97,79.1,98.3,81z"/>
			<path fill="none" stroke="#010101" stroke-miterlimit="10" d="M80.8,117.1c1.5,0.3,3.1,0.6,4.8,0.7"/>
			<path fill="none" stroke="#010101" stroke-miterlimit="10" d="M87.2,122.2H87c-2.1,0-4.2-0.6-6-1.7"/>
			<path fill="none" stroke="#010101" stroke-miterlimit="10" d="M81,120.5c-1.9-1.1-3.7-2.8-5.2-4.9c1.3,0.5,3,1,5,1.5L81,120.5z"
				/>
			<path fill="none" stroke="#010101" stroke-miterlimit="10" d="M89.1,118c1,0,2.1-0.1,3.1-0.2"/>
			<path fill="none" stroke="#010101" stroke-miterlimit="10" d="M92,121.1c-1.5,0.7-3.2,1.1-4.8,1.2l0.1-4.3"/>
			<path fill="none" stroke="#010101" stroke-miterlimit="10" d="M97.6,116.5c-1.6,2-3.5,3.6-5.6,4.6l0.2-3.4
				C94,117.5,95.8,117.1,97.6,116.5z"/>
			<path fill="none" stroke="#010101" stroke-miterlimit="10" d="M85.6,117.9c0.1-1.9,0.2-7-0.5-9c0,0-2.9,2.5-6.4,0.9
				c-3.5-1.6-3.2-5.4-3.2-5.4s-0.5-7.6,4.7-9.9c0,0,2.5-1.3,4.9-0.2c0,0,3.5-4,7.9,0.5c4.4,4.5-0.5,15.1-0.5,15.1l-3.5,8.1h0
				c-0.6,0-1.2,0-1.8,0C86.7,117.9,86.2,117.9,85.6,117.9z"/>
		</g>
	</g>
	<g>
		<path fill="none" stroke="#010101" stroke-linecap="round" stroke-linejoin="round" d="M85,109c0,0,3-2.7,3.9-4.3"/>
		<path fill="none" stroke="#010101" stroke-linecap="round" stroke-linejoin="round" d="M85,94.5c0,0-2.4,3.3-3.1,5.6"/>
	</g>
</g>
</svg>
