<svg width="71" height="85" viewBox="0 0 71 85" fill="none" xmlns="http://www.w3.org/2000/svg">
<mask id="path-1-inside-1_413_123" fill="white">
<path fill-rule="evenodd" clip-rule="evenodd" d="M71 42.5438C71 83.9944 42.3679 85.1478 11.0005 84.9898C5.47767 84.962 1 80.4647 1 74.9418V70.2096C1 64.6868 5.47422 60.2993 10.997 60.2733C25.9808 60.2027 44.3333 58.4678 44.3333 42.5438C44.3333 26.3968 32.1231 24.7709 17.6674 24.7189C17.5108 24.7184 17.355 24.7143 17.2002 24.7068C16.7685 24.6858 16.3335 24.7745 15.9014 24.7745H6.09998C5.12464 24.7745 4.33398 23.9839 4.33398 23.0085C4.33398 22.0332 5.12465 21.2425 6.09998 21.2425H9.94468C9.99199 21.2425 10.0175 21.1869 9.98707 21.1507C9.96339 21.1226 9.97359 21.0796 10.0066 21.0635C10.5944 20.7768 10.9994 20.1734 10.9994 19.4754C10.9994 18.5 10.2087 17.7094 9.23339 17.7094H8.10684C8.10641 17.7094 8.10602 17.7091 8.1059 17.7087C8.10577 17.7083 8.10538 17.708 8.10495 17.708H2.76599C1.79066 17.708 1 16.9173 1 15.942C1 14.9667 1.79066 14.176 2.76599 14.176H7.66621C7.66646 14.176 7.66667 14.1758 7.66667 14.1755C7.66667 14.1753 7.66687 14.1751 7.66713 14.1751H9.23339C10.2087 14.1751 10.9994 13.3844 10.9994 12.4091C10.9994 11.4337 10.2087 10.6431 9.23339 10.6431H7.66737C7.66698 10.6431 7.66667 10.6428 7.66667 10.6424C7.66667 10.642 7.66635 10.6417 7.66597 10.6417H2.76599C1.79066 10.6417 1 9.85102 1 8.87569C1 7.90036 1.79066 7.1097 2.76599 7.1097H8.03932C8.03962 7.1097 8.03989 7.1095 8.03997 7.10921C8.04005 7.10892 8.04032 7.10872 8.04062 7.10872H9.23339C10.2087 7.10872 10.9994 6.31805 10.9994 5.34272C10.9994 4.57875 10.5143 3.92809 9.83528 3.68196C9.81372 3.67414 9.80571 3.64747 9.81998 3.62952C9.8373 3.60774 9.82184 3.57548 9.79402 3.57548H6.10007C5.12474 3.57548 4.33408 2.78482 4.33408 1.80949C4.33408 0.834156 5.12475 0.0434939 6.10008 0.0434939H15.9015C16.0835 0.0434939 16.2663 0.0525026 16.4476 0.0365943C16.7773 0.00768037 17.1119 -0.00434475 17.4508 0.00139429C46.6504 0.495883 71 7.43752 71 42.5438Z"/>
</mask>
<path fill-rule="evenodd" clip-rule="evenodd" d="M71 42.5438C71 83.9944 42.3679 85.1478 11.0005 84.9898C5.47767 84.962 1 80.4647 1 74.9418V70.2096C1 64.6868 5.47422 60.2993 10.997 60.2733C25.9808 60.2027 44.3333 58.4678 44.3333 42.5438C44.3333 26.3968 32.1231 24.7709 17.6674 24.7189C17.5108 24.7184 17.355 24.7143 17.2002 24.7068C16.7685 24.6858 16.3335 24.7745 15.9014 24.7745H6.09998C5.12464 24.7745 4.33398 23.9839 4.33398 23.0085C4.33398 22.0332 5.12465 21.2425 6.09998 21.2425H9.94468C9.99199 21.2425 10.0175 21.1869 9.98707 21.1507C9.96339 21.1226 9.97359 21.0796 10.0066 21.0635C10.5944 20.7768 10.9994 20.1734 10.9994 19.4754C10.9994 18.5 10.2087 17.7094 9.23339 17.7094H8.10684C8.10641 17.7094 8.10602 17.7091 8.1059 17.7087C8.10577 17.7083 8.10538 17.708 8.10495 17.708H2.76599C1.79066 17.708 1 16.9173 1 15.942C1 14.9667 1.79066 14.176 2.76599 14.176H7.66621C7.66646 14.176 7.66667 14.1758 7.66667 14.1755C7.66667 14.1753 7.66687 14.1751 7.66713 14.1751H9.23339C10.2087 14.1751 10.9994 13.3844 10.9994 12.4091C10.9994 11.4337 10.2087 10.6431 9.23339 10.6431H7.66737C7.66698 10.6431 7.66667 10.6428 7.66667 10.6424C7.66667 10.642 7.66635 10.6417 7.66597 10.6417H2.76599C1.79066 10.6417 1 9.85102 1 8.87569C1 7.90036 1.79066 7.1097 2.76599 7.1097H8.03932C8.03962 7.1097 8.03989 7.1095 8.03997 7.10921C8.04005 7.10892 8.04032 7.10872 8.04062 7.10872H9.23339C10.2087 7.10872 10.9994 6.31805 10.9994 5.34272C10.9994 4.57875 10.5143 3.92809 9.83528 3.68196C9.81372 3.67414 9.80571 3.64747 9.81998 3.62952C9.8373 3.60774 9.82184 3.57548 9.79402 3.57548H6.10007C5.12474 3.57548 4.33408 2.78482 4.33408 1.80949C4.33408 0.834156 5.12475 0.0434939 6.10008 0.0434939H15.9015C16.0835 0.0434939 16.2663 0.0525026 16.4476 0.0365943C16.7773 0.00768037 17.1119 -0.00434475 17.4508 0.00139429C46.6504 0.495883 71 7.43752 71 42.5438Z" fill="#AB7ABF"/>
<path d="M11.0005 84.9898L11.0055 83.9898H11.0055L11.0005 84.9898ZM10.997 60.2733L10.9923 59.2733H10.9923L10.997 60.2733ZM17.6674 24.7189L17.671 23.7189L17.6674 24.7189ZM17.4508 0.00139429L17.4678 -0.998462L17.4508 0.00139429ZM16.4476 0.0365943L16.3603 -0.959581L16.4476 0.0365943ZM10.0066 21.0635L10.4451 21.9623L10.0066 21.0635ZM9.83528 3.68196L9.49449 4.62209L9.83528 3.68196ZM17.2002 24.7068L17.1516 25.7056L17.2002 24.7068ZM10.9954 85.9898C26.6218 86.0685 41.8752 85.8403 53.2044 80.2673C58.9117 77.4598 63.6349 73.2946 66.9179 67.1568C70.1924 61.035 72 53.0156 72 42.5438H70C70 52.7973 68.2286 60.466 65.1543 66.2135C62.0886 71.9451 57.6933 75.8303 52.3216 78.4727C41.4929 83.7995 26.7466 84.0691 11.0055 83.9898L10.9954 85.9898ZM0 74.9418C0 81.0154 4.92271 85.9592 10.9954 85.9898L11.0055 83.9898C6.03264 83.9648 2 79.914 2 74.9418H0ZM0 70.2096V74.9418H2V70.2096H0ZM10.9923 59.2733C4.93318 59.3018 0 64.1223 0 70.2096H2C2 65.2513 6.01526 61.2968 11.0017 61.2733L10.9923 59.2733ZM43.3333 42.5438C43.3333 46.3174 42.2519 49.183 40.4559 51.391C38.6468 53.6151 36.0555 55.2414 32.9317 56.4177C26.6552 58.7812 18.4839 59.238 10.9923 59.2733L11.0017 61.2733C18.4939 61.238 26.9907 60.792 33.6365 58.2894C36.9737 57.0327 39.9071 55.2352 42.0074 52.6531C44.1207 50.055 45.3333 46.7322 45.3333 42.5438H43.3333ZM17.6638 25.7189C24.9129 25.745 31.3516 26.1774 35.9738 28.49C38.252 29.6299 40.07 31.2193 41.3291 33.4462C42.5936 35.6824 43.3333 38.6307 43.3333 42.5438H45.3333C45.3333 38.3835 44.5468 35.0733 43.0701 32.4618C41.5881 29.8408 39.45 27.9929 36.8687 26.7014C31.7719 24.1514 24.8777 23.7448 17.671 23.7189L17.6638 25.7189ZM17.1516 25.7056C17.3214 25.7138 17.4922 25.7183 17.6638 25.7189L17.671 23.7189C17.5294 23.7184 17.3886 23.7147 17.2488 23.7079L17.1516 25.7056ZM15.9014 23.7745H6.09998V25.7745H15.9014V23.7745ZM6.09998 23.7745C5.67693 23.7745 5.33398 23.4316 5.33398 23.0085H3.33398C3.33398 24.5361 4.57236 25.7745 6.09998 25.7745V23.7745ZM5.33398 23.0085C5.33398 22.5855 5.67693 22.2425 6.09998 22.2425V20.2425C4.57236 20.2425 3.33398 21.4809 3.33398 23.0085H5.33398ZM6.09998 22.2425H9.94468V20.2425H6.09998V22.2425ZM9.99938 19.4754C9.99938 19.7766 9.82556 20.0392 9.56822 20.1648L10.4451 21.9623C11.3633 21.5144 11.9994 20.5701 11.9994 19.4754H9.99938ZM9.23339 18.7094C9.65643 18.7094 9.99938 19.0523 9.99938 19.4754H11.9994C11.9994 17.9478 10.761 16.7094 9.23339 16.7094V18.7094ZM8.10684 18.7094H9.23339V16.7094H8.10684V18.7094ZM2.76599 18.708H8.10495V16.708H2.76599V18.708ZM0 15.942C0 17.4696 1.23838 18.708 2.76599 18.708V16.708C2.34295 16.708 2 16.365 2 15.942H0ZM2.76599 13.176C1.23838 13.176 0 14.4144 0 15.942H2C2 15.5189 2.34295 15.176 2.76599 15.176V13.176ZM7.66621 13.176H2.76599V15.176H7.66621V13.176ZM9.23339 13.1751H7.66713V15.1751H9.23339V13.1751ZM9.99938 12.4091C9.99938 12.8321 9.65643 13.1751 9.23339 13.1751V15.1751C10.761 15.1751 11.9994 13.9367 11.9994 12.4091H9.99938ZM9.23339 11.6431C9.65643 11.6431 9.99938 11.986 9.99938 12.4091H11.9994C11.9994 10.8815 10.761 9.64309 9.23339 9.64309V11.6431ZM7.66737 11.6431H9.23339V9.64309H7.66737V11.6431ZM2.76599 11.6417H7.66597V9.64169H2.76599V11.6417ZM0 8.87569C0 10.4033 1.23837 11.6417 2.76599 11.6417V9.64169C2.34295 9.64169 2 9.29874 2 8.87569H0ZM2.76599 6.1097C1.23838 6.1097 0 7.34808 0 8.87569H2C2 8.45265 2.34295 8.1097 2.76599 8.1097V6.1097ZM8.03932 6.1097H2.76599V8.1097H8.03932V6.1097ZM9.23339 6.10872H8.04062V8.10872H9.23339V6.10872ZM9.99938 5.34272C9.99938 5.76577 9.65643 6.10872 9.23339 6.10872V8.10872C10.761 8.10872 11.9994 6.87034 11.9994 5.34272H9.99938ZM9.49449 4.62209C9.79044 4.72938 9.99938 5.01292 9.99938 5.34272H11.9994C11.9994 4.14458 11.2381 3.1268 10.1761 2.74182L9.49449 4.62209ZM6.10007 4.57548H9.79402V2.57548H6.10007V4.57548ZM3.33408 1.80949C3.33408 3.3371 4.57246 4.57548 6.10007 4.57548V2.57548C5.67703 2.57548 5.33408 2.23253 5.33408 1.80949H3.33408ZM6.10008 -0.956506C4.57246 -0.956506 3.33408 0.281871 3.33408 1.80949H5.33408C5.33408 1.38644 5.67703 1.04349 6.10008 1.04349V-0.956506ZM15.9015 -0.956506H6.10008V1.04349H15.9015V-0.956506ZM17.4678 -0.998462C17.0941 -1.00479 16.7246 -0.991536 16.3603 -0.959581L16.535 1.03277C16.83 1.0069 17.1298 0.996102 17.4339 1.00125L17.4678 -0.998462ZM72 42.5438C72 24.7234 65.7956 13.8549 55.7115 7.44909C45.7262 1.10609 32.0975 -0.750712 17.4678 -0.998462L17.4339 1.00125C32.0038 1.24799 45.1497 3.10925 54.6391 9.13727C64.0296 15.1025 70 25.258 70 42.5438H72ZM15.9015 1.04349C16.0173 1.04349 16.2956 1.05377 16.535 1.03277L16.3603 -0.959581C16.2369 -0.948761 16.1497 -0.956506 15.9015 -0.956506V1.04349ZM8.03932 8.1097C8.4875 8.1097 8.88103 7.81169 9.00252 7.38029L7.07741 6.83812C7.19874 6.4073 7.59174 6.1097 8.03932 6.1097V8.1097ZM7.66737 9.64309C8.21926 9.64309 8.66667 10.0905 8.66667 10.6424H6.66667C6.66667 11.1951 7.1147 11.6431 7.66737 11.6431V9.64309ZM8.66667 14.1755C8.66667 14.7276 8.21908 15.1751 7.66713 15.1751V13.1751C7.11467 13.1751 6.66667 13.6229 6.66667 14.1755H8.66667ZM9.00252 7.38029C8.88117 7.81118 8.48813 8.10872 8.04062 8.10872V6.10872C7.59251 6.10872 7.19893 6.40665 7.07741 6.83812L9.00252 7.38029ZM7.66621 15.176C8.21874 15.176 8.66667 14.7281 8.66667 14.1755H6.66667C6.66667 13.6235 7.11418 13.176 7.66621 13.176V15.176ZM8.66667 10.6424C8.66667 10.0899 8.21886 9.64169 7.66597 9.64169V11.6417C7.11385 11.6417 6.66667 11.1941 6.66667 10.6424H8.66667ZM8.10684 16.7094C8.54514 16.7094 8.93225 16.9951 9.06146 17.4139L7.15033 18.0035C7.2798 18.4231 7.66768 18.7094 8.10684 18.7094V16.7094ZM10.6027 4.25192C11.137 3.57995 10.6654 2.57548 9.79402 2.57548V4.57548C8.97827 4.57548 8.53757 3.63553 9.03728 3.00712L10.6027 4.25192ZM10.7519 20.5065C11.1705 21.0035 10.9648 21.7088 10.4451 21.9623L9.56822 20.1648C8.9824 20.4505 8.75623 21.2416 9.22221 21.7949L10.7519 20.5065ZM9.06146 17.4139C8.93208 16.9945 8.54441 16.708 8.10495 16.708V18.708C7.66635 18.708 7.27945 18.422 7.15033 18.0035L9.06146 17.4139ZM10.1761 2.74182C10.7734 2.95834 11.0294 3.71527 10.6027 4.25192L9.03728 3.00712C8.58199 3.57967 8.85406 4.38994 9.49449 4.62209L10.1761 2.74182ZM9.94468 22.2425C10.854 22.2425 11.3226 21.1841 10.7519 20.5065L9.22221 21.7949C8.71249 21.1897 9.12999 20.2425 9.94468 20.2425V22.2425ZM17.2488 23.7079C16.9563 23.6937 16.6775 23.7173 16.4611 23.7368C16.224 23.7582 16.0614 23.7745 15.9014 23.7745V25.7745C16.1735 25.7745 16.4445 25.7464 16.6409 25.7287C16.8579 25.7091 17.0124 25.6988 17.1516 25.7056L17.2488 23.7079Z" fill="#AB7ABF" mask="url(#path-1-inside-1_413_123)"/>
<path d="M4.02759 32.0492L23.6987 42.207L4.02759 53.7014" stroke="#AB7ABF" stroke-width="7" stroke-linecap="round" stroke-linejoin="round"/>
</svg>
